<svg width="780" height="148" viewBox="0 0 780 148" fill="none"
    xmlns="http://www.w3.org/2000/svg">
    <rect x="0.5" y="0.5" width="779" height="147" rx="11.5" fill="white"/>
    <rect x="0.5" y="0.5" width="779" height="147" rx="11.5" stroke="#DCDCDC"/>
    <path d="M17.498 21.192L18.17 20.548C18.422 20.7533 18.6833 20.982 18.954 21.234C19.2247 21.486 19.4813 21.7333 19.724 21.976C19.9667 22.2187 20.158 22.4333 20.298 22.62L19.584 23.362C19.444 23.166 19.2527 22.942 19.01 22.69C18.7767 22.438 18.5247 22.1813 18.254 21.92C17.9927 21.6587 17.7407 21.416 17.498 21.192ZM18.562 32.868L18.38 31.874L18.66 31.426L21.152 29.564C21.1893 29.704 21.2407 29.8627 21.306 30.04C21.3807 30.2173 21.446 30.3573 21.502 30.46C20.914 30.9173 20.438 31.286 20.074 31.566C19.71 31.846 19.4253 32.0653 19.22 32.224C19.024 32.392 18.8793 32.5227 18.786 32.616C18.6927 32.7093 18.618 32.7933 18.562 32.868ZM16.588 24.636H19.29V25.644H16.588V24.636ZM18.562 32.868C18.534 32.784 18.4873 32.6813 18.422 32.56C18.3567 32.448 18.2867 32.336 18.212 32.224C18.1467 32.1213 18.0813 32.0373 18.016 31.972C18.1467 31.888 18.2913 31.7433 18.45 31.538C18.6087 31.3327 18.688 31.076 18.688 30.768V24.636H19.696V31.65C19.696 31.65 19.64 31.6967 19.528 31.79C19.416 31.874 19.2853 31.9813 19.136 32.112C18.9867 32.2427 18.8513 32.3733 18.73 32.504C18.618 32.644 18.562 32.7653 18.562 32.868ZM22.678 28.29H27.592V29.032H22.678V28.29ZM21.348 21.332H29.006V22.144H21.348V21.332ZM21.698 23.04H28.586V23.81H21.698V23.04ZM20.928 24.776H29.44V25.588H20.928V24.776ZM22.664 30.18H27.62V30.95H22.664V30.18ZM21.936 26.4H27.62V27.212H22.916V33.106H21.936V26.4ZM27.312 26.4H28.32V31.944C28.32 32.2053 28.2827 32.4107 28.208 32.56C28.1427 32.7093 28.0073 32.8213 27.802 32.896C27.6153 32.98 27.3587 33.0267 27.032 33.036C26.7053 33.0547 26.29 33.064 25.786 33.064C25.7673 32.9333 25.7253 32.7793 25.66 32.602C25.604 32.434 25.5433 32.2847 25.478 32.154C25.8327 32.1633 26.1593 32.168 26.458 32.168C26.766 32.1773 26.9667 32.1773 27.06 32.168C27.228 32.1587 27.312 32.0793 27.312 31.93V26.4ZM24.596 20.24H25.632V25.028H24.596V20.24ZM30.938 29.452C30.9287 29.3773 30.9007 29.2793 30.854 29.158C30.8167 29.0367 30.7747 28.9107 30.728 28.78C30.6907 28.6493 30.6487 28.542 30.602 28.458C30.7513 28.43 30.91 28.332 31.078 28.164C31.2553 27.996 31.4513 27.7813 31.666 27.52C31.7873 27.3893 31.96 27.184 32.184 26.904C32.408 26.6147 32.66 26.2693 32.94 25.868C33.2293 25.4573 33.514 25.0187 33.794 24.552C34.0833 24.0853 34.3493 23.614 34.592 23.138L35.516 23.684C34.956 24.636 34.3447 25.5693 33.682 26.484C33.0193 27.3987 32.352 28.1967 31.68 28.878V28.906C31.68 28.906 31.6427 28.9247 31.568 28.962C31.4933 28.9993 31.4047 29.046 31.302 29.102C31.2087 29.158 31.1247 29.2187 31.05 29.284C30.9753 29.34 30.938 29.396 30.938 29.452ZM30.938 29.452L30.896 28.598L31.414 28.234L35.278 27.534C35.2687 27.6647 35.264 27.8187 35.264 27.996C35.264 28.1733 35.2687 28.318 35.278 28.43C34.3913 28.6073 33.6773 28.752 33.136 28.864C32.5947 28.976 32.1747 29.0693 31.876 29.144C31.5867 29.2093 31.3767 29.2653 31.246 29.312C31.1153 29.3587 31.0127 29.4053 30.938 29.452ZM30.854 26.078C30.8353 26.0033 30.8027 25.9053 30.756 25.784C30.7187 25.6533 30.6767 25.5227 30.63 25.392C30.5833 25.252 30.5367 25.14 30.49 25.056C30.6207 25.0187 30.7467 24.9253 30.868 24.776C30.9987 24.6173 31.1387 24.4213 31.288 24.188C31.3627 24.0667 31.4747 23.8753 31.624 23.614C31.7733 23.3527 31.9367 23.04 32.114 22.676C32.2913 22.312 32.4687 21.9247 32.646 21.514C32.8233 21.094 32.982 20.674 33.122 20.254L34.144 20.716C33.92 21.2853 33.6633 21.8593 33.374 22.438C33.0847 23.0073 32.7813 23.5533 32.464 24.076C32.1467 24.5987 31.8247 25.07 31.498 25.49V25.518C31.498 25.518 31.4653 25.5367 31.4 25.574C31.344 25.6113 31.2693 25.6627 31.176 25.728C31.092 25.784 31.0173 25.8447 30.952 25.91C30.8867 25.966 30.854 26.022 30.854 26.078ZM30.854 26.078L30.826 25.28L31.33 24.944L33.906 24.692C33.8873 24.8227 33.8687 24.972 33.85 25.14C33.8313 25.308 33.8267 25.448 33.836 25.56C33.248 25.644 32.772 25.714 32.408 25.77C32.044 25.8167 31.7547 25.8587 31.54 25.896C31.3347 25.9333 31.1807 25.966 31.078 25.994C30.9847 26.022 30.91 26.05 30.854 26.078ZM30.588 31.258C30.9893 31.174 31.4467 31.076 31.96 30.964C32.4827 30.852 33.0287 30.7307 33.598 30.6C34.1767 30.4693 34.7647 30.334 35.362 30.194L35.446 31.132C34.6247 31.3373 33.8033 31.5427 32.982 31.748C32.17 31.944 31.442 32.126 30.798 32.294L30.588 31.258ZM36.972 24.832H41.41V25.798H36.972V24.832ZM36.734 31.454H41.536V32.406H36.734V31.454ZM36.286 27.38H42.012V33.12H40.948V28.332H37.308V33.162H36.286V27.38ZM39.548 20.646C39.8093 21.234 40.1407 21.8173 40.542 22.396C40.9527 22.9747 41.4007 23.502 41.886 23.978C42.3807 24.4447 42.88 24.8227 43.384 25.112C43.3093 25.1773 43.2207 25.2613 43.118 25.364C43.0247 25.4667 42.936 25.574 42.852 25.686C42.768 25.7887 42.6933 25.8867 42.628 25.98C42.1147 25.644 41.6107 25.21 41.116 24.678C40.6213 24.1367 40.1687 23.544 39.758 22.9C39.3473 22.256 38.9973 21.6027 38.708 20.94L39.548 20.646ZM38.82 20.268L39.842 20.534C39.4593 21.6633 38.9273 22.7133 38.246 23.684C37.5647 24.6547 36.7527 25.476 35.81 26.148C35.754 26.0733 35.6793 25.9893 35.586 25.896C35.502 25.8027 35.4087 25.7093 35.306 25.616C35.2127 25.5227 35.1287 25.448 35.054 25.392C35.642 24.9907 36.1833 24.5193 36.678 23.978C37.1727 23.4367 37.602 22.8487 37.966 22.214C38.33 21.5793 38.6147 20.9307 38.82 20.268ZM53.856 21.164L54.654 20.604C54.9247 20.8373 55.2047 21.094 55.494 21.374C55.7833 21.654 56.054 21.934 56.306 22.214C56.558 22.4847 56.7587 22.732 56.908 22.956L56.054 23.572C55.914 23.348 55.7227 23.096 55.48 22.816C55.2373 22.5267 54.9713 22.2373 54.682 21.948C54.402 21.6587 54.1267 21.3973 53.856 21.164ZM44.784 24.384H57.244V25.378H44.784V24.384ZM44.574 28.486C45.1247 28.3833 45.7687 28.2573 46.506 28.108C47.2527 27.9587 48.0367 27.8 48.858 27.632C49.6887 27.4547 50.5147 27.2773 51.336 27.1L51.42 28.038C50.6547 28.2153 49.88 28.3973 49.096 28.584C48.3213 28.7613 47.57 28.934 46.842 29.102C46.1233 29.2607 45.47 29.41 44.882 29.55L44.574 28.486ZM47.78 21.668H48.83V31.762C48.83 32.1073 48.7833 32.3687 48.69 32.546C48.606 32.7233 48.4473 32.854 48.214 32.938C47.9993 33.022 47.696 33.0733 47.304 33.092C46.9213 33.12 46.4407 33.134 45.862 33.134C45.8433 33.0313 45.8153 32.9147 45.778 32.784C45.7407 32.6627 45.694 32.5367 45.638 32.406C45.582 32.2753 45.5307 32.1633 45.484 32.07C45.932 32.0793 46.3427 32.084 46.716 32.084C47.0893 32.0933 47.3367 32.0933 47.458 32.084C47.5793 32.0747 47.6633 32.0467 47.71 32C47.7567 31.9627 47.78 31.8833 47.78 31.762V21.668ZM50.44 20.408L51.182 21.29C50.6407 21.4767 50.0293 21.6493 49.348 21.808C48.676 21.9573 47.9807 22.0973 47.262 22.228C46.5527 22.3587 45.862 22.4707 45.19 22.564C45.162 22.4427 45.1153 22.298 45.05 22.13C44.994 21.9527 44.9333 21.8033 44.868 21.682C45.5213 21.5793 46.1933 21.4627 46.884 21.332C47.5747 21.192 48.228 21.0427 48.844 20.884C49.46 20.7253 49.992 20.5667 50.44 20.408ZM51.84 20.352H52.946C52.9367 21.6307 52.9787 22.858 53.072 24.034C53.1747 25.2007 53.3193 26.2787 53.506 27.268C53.6927 28.248 53.912 29.102 54.164 29.83C54.4253 30.5487 54.71 31.1087 55.018 31.51C55.326 31.902 55.648 32.098 55.984 32.098C56.18 32.098 56.3247 31.9067 56.418 31.524C56.5207 31.132 56.5907 30.4833 56.628 29.578C56.74 29.69 56.88 29.802 57.048 29.914C57.216 30.0167 57.37 30.096 57.51 30.152C57.454 30.9267 57.3653 31.5333 57.244 31.972C57.1227 32.4107 56.9547 32.7187 56.74 32.896C56.5253 33.0733 56.2407 33.162 55.886 33.162C55.438 33.162 55.0227 33.0033 54.64 32.686C54.2667 32.3687 53.9307 31.9207 53.632 31.342C53.3427 30.754 53.086 30.0633 52.862 29.27C52.6473 28.4767 52.4653 27.604 52.316 26.652C52.1667 25.6907 52.0547 24.678 51.98 23.614C51.9053 22.55 51.8587 21.4627 51.84 20.352ZM55.648 26.022L56.572 26.414C56.124 27.2727 55.5733 28.0893 54.92 28.864C54.276 29.6293 53.562 30.3293 52.778 30.964C52.0033 31.5987 51.182 32.14 50.314 32.588C50.23 32.4667 50.118 32.3267 49.978 32.168C49.8473 32.0093 49.7167 31.874 49.586 31.762C50.426 31.3607 51.2287 30.866 51.994 30.278C52.7593 29.6807 53.4547 29.018 54.08 28.29C54.7053 27.562 55.228 26.806 55.648 26.022ZM58.77 21.276H71.244V22.326H58.77V21.276ZM64.174 22.102H65.28V33.106H64.174V22.102ZM64.776 25.42L65.476 24.622C65.896 24.818 66.3393 25.042 66.806 25.294C67.2727 25.546 67.7347 25.8073 68.192 26.078C68.6493 26.3393 69.074 26.596 69.466 26.848C69.8673 27.1 70.208 27.3333 70.488 27.548L69.746 28.5C69.4753 28.2853 69.144 28.0473 68.752 27.786C68.3693 27.5153 67.9493 27.2447 67.492 26.974C67.044 26.694 66.5867 26.4233 66.12 26.162C65.6533 25.8913 65.2053 25.644 64.776 25.42ZM76.34 23.544H85.104V24.538H76.34V23.544ZM75.724 26.75V30.852H74.702V27.73H72.714V26.75H75.724ZM75.724 30.278C76.06 30.7913 76.5267 31.174 77.124 31.426C77.7213 31.678 78.426 31.8227 79.238 31.86C79.6113 31.8693 80.0687 31.8787 80.61 31.888C81.1607 31.888 81.7347 31.8833 82.332 31.874C82.9293 31.8647 83.508 31.8507 84.068 31.832C84.628 31.8133 85.1133 31.79 85.524 31.762C85.4867 31.846 85.4447 31.9487 85.398 32.07C85.3513 32.2007 85.3093 32.3313 85.272 32.462C85.2347 32.5927 85.2067 32.7093 85.188 32.812C84.8053 32.8307 84.3527 32.8447 83.83 32.854C83.3167 32.8727 82.78 32.882 82.22 32.882C81.66 32.8913 81.1187 32.8913 80.596 32.882C80.0733 32.882 79.6207 32.8727 79.238 32.854C78.3327 32.8167 77.5533 32.6627 76.9 32.392C76.256 32.1307 75.71 31.7293 75.262 31.188C74.9167 31.4867 74.5573 31.7853 74.184 32.084C73.82 32.392 73.442 32.6953 73.05 32.994L72.518 31.944C72.8633 31.7293 73.2367 31.4773 73.638 31.188C74.0393 30.8893 74.4267 30.586 74.8 30.278H75.724ZM73.372 21.066L74.086 20.422C74.3753 20.5713 74.6693 20.744 74.968 20.94C75.2667 21.136 75.5467 21.3367 75.808 21.542C76.0693 21.7473 76.2793 21.948 76.438 22.144L75.696 22.858C75.5467 22.6713 75.3413 22.4707 75.08 22.256C74.828 22.0413 74.5527 21.8313 74.254 21.626C73.9553 21.4113 73.6613 21.2247 73.372 21.066ZM72.798 23.908L73.484 23.236C73.7827 23.376 74.0907 23.5393 74.408 23.726C74.7347 23.9127 75.038 24.1133 75.318 24.328C75.6073 24.5333 75.836 24.7293 76.004 24.916L75.29 25.672C75.122 25.4853 74.898 25.2847 74.618 25.07C74.3473 24.8553 74.0533 24.6453 73.736 24.44C73.4187 24.2347 73.106 24.0573 72.798 23.908ZM80.078 20.282H81.114C81.0953 21.57 81.0487 22.76 80.974 23.852C80.8993 24.944 80.7267 25.9333 80.456 26.82C80.1947 27.7067 79.784 28.4907 79.224 29.172C78.664 29.844 77.8893 30.4133 76.9 30.88C76.8627 30.796 76.802 30.7027 76.718 30.6C76.634 30.4973 76.5453 30.3993 76.452 30.306C76.368 30.2033 76.284 30.1287 76.2 30.082C77.1333 29.662 77.8567 29.144 78.37 28.528C78.8927 27.912 79.2707 27.1933 79.504 26.372C79.7467 25.5507 79.896 24.636 79.952 23.628C80.0173 22.6107 80.0593 21.4953 80.078 20.282ZM81.198 24.132C81.3753 25.112 81.6273 25.9893 81.954 26.764C82.29 27.5293 82.7333 28.178 83.284 28.71C83.844 29.242 84.5347 29.6527 85.356 29.942C85.2907 30.0073 85.2113 30.096 85.118 30.208C85.034 30.3107 84.9547 30.418 84.88 30.53C84.8053 30.642 84.7447 30.7447 84.698 30.838C83.8207 30.4833 83.088 30.0073 82.5 29.41C81.912 28.8127 81.4407 28.0893 81.086 27.24C80.7407 26.3813 80.47 25.392 80.274 24.272L81.198 24.132ZM86.616 25.966H99.44V27.114H86.616V25.966ZM106.944 21.374C106.655 21.8127 106.295 22.2747 105.866 22.76C105.437 23.2453 104.956 23.7307 104.424 24.216C103.901 24.692 103.341 25.154 102.744 25.602C102.156 26.05 101.549 26.456 100.924 26.82C100.877 26.736 100.817 26.6427 100.742 26.54C100.667 26.428 100.588 26.3253 100.504 26.232C100.42 26.1293 100.336 26.0407 100.252 25.966C100.887 25.6113 101.507 25.2053 102.114 24.748C102.721 24.2907 103.29 23.8053 103.822 23.292C104.363 22.7787 104.849 22.2653 105.278 21.752C105.707 21.2387 106.057 20.7487 106.328 20.282H107.434C107.817 20.8233 108.251 21.36 108.736 21.892C109.231 22.4147 109.758 22.9187 110.318 23.404C110.887 23.8893 111.466 24.3373 112.054 24.748C112.651 25.1493 113.239 25.4947 113.818 25.784C113.678 25.9147 113.547 26.0687 113.426 26.246C113.305 26.414 113.197 26.5773 113.104 26.736C112.525 26.4 111.942 26.022 111.354 25.602C110.766 25.1727 110.197 24.72 109.646 24.244C109.095 23.7587 108.587 23.2733 108.12 22.788C107.663 22.2933 107.271 21.822 106.944 21.374ZM106.398 24.86H107.504V33.12H106.398V24.86ZM126.096 20.59L126.88 21.472C126.367 21.6493 125.793 21.8127 125.158 21.962C124.533 22.1113 123.875 22.2513 123.184 22.382C122.493 22.5127 121.793 22.6293 121.084 22.732C120.384 22.8347 119.698 22.9233 119.026 22.998C119.007 22.8767 118.965 22.732 118.9 22.564C118.835 22.3867 118.774 22.2373 118.718 22.116C119.371 22.032 120.039 21.934 120.72 21.822C121.411 21.71 122.083 21.5887 122.736 21.458C123.399 21.3273 124.015 21.1873 124.584 21.038C125.163 20.8887 125.667 20.7393 126.096 20.59ZM118.256 26.232H127.44V27.24H118.256V26.232ZM118.802 31.566H127.216V32.574H118.802V31.566ZM122.414 22.13H123.478V31.846H122.414V22.13ZM116.604 23.964L117.64 22.928V22.942V33.12H116.604V23.964ZM118.13 20.24L119.138 20.562C118.811 21.3833 118.424 22.186 117.976 22.97C117.537 23.754 117.061 24.4913 116.548 25.182C116.035 25.8727 115.503 26.484 114.952 27.016C114.915 26.932 114.854 26.8247 114.77 26.694C114.695 26.5633 114.616 26.4327 114.532 26.302C114.448 26.162 114.373 26.05 114.308 25.966C114.812 25.5087 115.297 24.9767 115.764 24.37C116.24 23.754 116.679 23.096 117.08 22.396C117.491 21.696 117.841 20.9773 118.13 20.24ZM129.764 28.052H139.494V28.976H129.764V28.052ZM139.13 28.052H140.18C140.18 28.052 140.175 28.08 140.166 28.136C140.166 28.192 140.161 28.2573 140.152 28.332C140.152 28.4067 140.143 28.472 140.124 28.528C140.021 29.368 139.914 30.0633 139.802 30.614C139.699 31.1647 139.583 31.594 139.452 31.902C139.321 32.21 139.177 32.434 139.018 32.574C138.869 32.714 138.705 32.8073 138.528 32.854C138.351 32.91 138.136 32.9473 137.884 32.966C137.669 32.966 137.371 32.9613 136.988 32.952C136.605 32.952 136.204 32.9427 135.784 32.924C135.775 32.7747 135.737 32.6113 135.672 32.434C135.616 32.266 135.541 32.1167 135.448 31.986C135.737 32.014 136.022 32.0327 136.302 32.042C136.591 32.0607 136.848 32.07 137.072 32.07C137.296 32.0793 137.464 32.084 137.576 32.084C137.725 32.084 137.847 32.0747 137.94 32.056C138.033 32.0373 138.117 32 138.192 31.944C138.313 31.8413 138.43 31.65 138.542 31.37C138.654 31.0807 138.757 30.6793 138.85 30.166C138.943 29.6433 139.037 28.99 139.13 28.206V28.052ZM134.244 26.666L135.336 26.75C135.149 28.01 134.813 29.06 134.328 29.9C133.843 30.7307 133.189 31.398 132.368 31.902C131.556 32.406 130.557 32.8027 129.372 33.092C129.344 33.008 129.293 32.91 129.218 32.798C129.153 32.6953 129.083 32.588 129.008 32.476C128.933 32.364 128.863 32.2707 128.798 32.196C129.927 31.9813 130.87 31.6593 131.626 31.23C132.382 30.7913 132.975 30.2033 133.404 29.466C133.833 28.7193 134.113 27.786 134.244 26.666ZM132.508 21.682H139.298V22.578H132.508V21.682ZM139.046 21.682H139.256L139.438 21.626L140.068 22.06C139.564 22.816 138.911 23.4787 138.108 24.048C137.315 24.608 136.419 25.084 135.42 25.476C134.431 25.868 133.39 26.19 132.298 26.442C131.215 26.6847 130.137 26.8713 129.064 27.002C129.027 26.8713 128.966 26.7173 128.882 26.54C128.807 26.3533 128.728 26.1993 128.644 26.078C129.68 25.9753 130.721 25.8167 131.766 25.602C132.821 25.3873 133.819 25.1073 134.762 24.762C135.705 24.4073 136.545 23.9873 137.282 23.502C138.029 23.0167 138.617 22.4567 139.046 21.822V21.682ZM132.494 22.732C133.007 23.3853 133.707 23.936 134.594 24.384C135.481 24.8227 136.507 25.1633 137.674 25.406C138.85 25.6487 140.11 25.8073 141.454 25.882C141.389 25.966 141.314 26.064 141.23 26.176C141.155 26.288 141.085 26.4 141.02 26.512C140.955 26.624 140.903 26.7313 140.866 26.834C139.503 26.7127 138.229 26.5073 137.044 26.218C135.859 25.9287 134.804 25.532 133.88 25.028C132.965 24.5147 132.209 23.8707 131.612 23.096L132.494 22.732ZM133.348 20.226L134.44 20.436C133.973 21.192 133.367 21.9387 132.62 22.676C131.883 23.4133 130.982 24.0807 129.918 24.678C129.871 24.594 129.811 24.5053 129.736 24.412C129.661 24.3093 129.582 24.2113 129.498 24.118C129.414 24.0247 129.335 23.95 129.26 23.894C129.923 23.5487 130.515 23.1707 131.038 22.76C131.57 22.3493 132.027 21.9247 132.41 21.486C132.802 21.0473 133.115 20.6273 133.348 20.226ZM143.929 32.0795C143.684 32.0795 143.473 31.9917 143.298 31.8161C143.122 31.6404 143.034 31.4299 143.034 31.1847C143.034 30.9394 143.122 30.7289 143.298 30.5533C143.473 30.3776 143.684 30.2898 143.929 30.2898C144.174 30.2898 144.385 30.3776 144.56 30.5533C144.736 30.7289 144.824 30.9394 144.824 31.1847C144.824 31.3471 144.782 31.4962 144.7 31.6321C144.62 31.768 144.512 31.8774 144.376 31.9602C144.244 32.0398 144.095 32.0795 143.929 32.0795ZM147.784 32.0795C147.539 32.0795 147.329 31.9917 147.153 31.8161C146.977 31.6404 146.89 31.4299 146.89 31.1847C146.89 30.9394 146.977 30.7289 147.153 30.5533C147.329 30.3776 147.539 30.2898 147.784 30.2898C148.03 30.2898 148.24 30.3776 148.416 30.5533C148.592 30.7289 148.679 30.9394 148.679 31.1847C148.679 31.3471 148.638 31.4962 148.555 31.6321C148.475 31.768 148.368 31.8774 148.232 31.9602C148.099 32.0398 147.95 32.0795 147.784 32.0795ZM151.64 32.0795C151.395 32.0795 151.184 31.9917 151.009 31.8161C150.833 31.6404 150.745 31.4299 150.745 31.1847C150.745 30.9394 150.833 30.7289 151.009 30.5533C151.184 30.3776 151.395 30.2898 151.64 30.2898C151.885 30.2898 152.096 30.3776 152.271 30.5533C152.447 30.7289 152.535 30.9394 152.535 31.1847C152.535 31.3471 152.493 31.4962 152.411 31.6321C152.331 31.768 152.223 31.8774 152.087 31.9602C151.955 32.0398 151.806 32.0795 151.64 32.0795Z" fill="#909399"/>
    <mask id="path-3-inside-1_137_999" fill="white">
        <path d="M12 108C12 101.373 17.3726 96 24 96H120C126.627 96 132 101.373 132 108V124C132 130.627 126.627 136 120 136H24C17.3726 136 12 130.627 12 124V108Z"/>
    </mask>
    <path d="M12 108C12 101.373 17.3726 96 24 96H120C126.627 96 132 101.373 132 108V124C132 130.627 126.627 136 120 136H24C17.3726 136 12 130.627 12 124V108Z" fill="white"/>
    <path d="M24 96V97H120V96V95H24V96ZM132 108H131V124H132H133V108H132ZM120 136V135H24V136V137H120V136ZM12 124H13V108H12H11V124H12ZM24 136V135C17.9249 135 13 130.075 13 124H12H11C11 131.18 16.8203 137 24 137V136ZM132 124H131C131 130.075 126.075 135 120 135V136V137C127.18 137 133 131.18 133 124H132ZM120 96V97C126.075 97 131 101.925 131 108H132H133C133 100.82 127.18 95 120 95V96ZM24 96V95C16.8203 95 11 100.82 11 108H12H13C13 101.925 17.9249 97 24 97V96Z" fill="#DCDCDC" mask="url(#path-3-inside-1_137_999)"/>
    <path d="M39.5425 110.076C40.8443 108.775 42.9548 108.775 44.2566 110.076C45.5583 111.378 45.5583 113.489 44.2566 114.79L39.0711 119.976C38.2901 120.757 37.0237 120.757 36.2427 119.976C35.4616 119.195 35.4616 117.928 36.2427 117.147L41.4281 111.962L42.3709 112.905L37.1855 118.09C36.9251 118.351 36.9251 118.773 37.1855 119.033C37.4458 119.293 37.868 119.293 38.1283 119.033L43.3138 113.848C44.0948 113.067 44.0948 111.8 43.3138 111.019C42.5327 110.238 41.2664 110.238 40.4853 111.019L35.2999 116.205C33.9981 117.506 33.9981 119.617 35.2999 120.919C36.6016 122.22 38.7122 122.22 40.0139 120.919L45.6708 115.262L46.6136 116.205L40.9567 121.861C39.1343 123.684 36.1795 123.684 34.3571 121.861C32.5346 120.039 32.5346 117.084 34.3571 115.262L39.5425 110.076Z" fill="#606266"/>
    <path d="M62.58 113.776H68.334V114.826H62.58V113.776ZM56.714 120.398H69.3V121.448H56.714V120.398ZM61.978 109.45H63.084V120.958H61.978V109.45ZM73.724 109.296L74.718 109.59C74.41 110.383 74.0507 111.167 73.64 111.942C73.2293 112.707 72.786 113.431 72.31 114.112C71.834 114.793 71.344 115.395 70.84 115.918C70.8027 115.834 70.7513 115.727 70.686 115.596C70.6207 115.465 70.546 115.335 70.462 115.204C70.3873 115.064 70.3173 114.957 70.252 114.882C70.7093 114.425 71.1527 113.897 71.582 113.3C72.0113 112.703 72.408 112.063 72.772 111.382C73.1453 110.691 73.4627 109.996 73.724 109.296ZM72.24 112.894L73.234 111.886L73.248 111.9V122.092H72.24V112.894ZM76.636 116.17H81.83V117.15H76.636V116.17ZM81.48 116.17H81.676L81.844 116.1L82.586 116.562C82.2593 116.945 81.8907 117.369 81.48 117.836C81.0693 118.303 80.6447 118.774 80.206 119.25C79.7767 119.717 79.3613 120.169 78.96 120.608L78.092 120.076C78.4933 119.656 78.9087 119.213 79.338 118.746C79.7673 118.279 80.1687 117.831 80.542 117.402C80.9247 116.963 81.2373 116.595 81.48 116.296V116.17ZM78.022 109.31L79.058 109.45C78.8993 110.075 78.7267 110.738 78.54 111.438C78.3533 112.129 78.162 112.824 77.966 113.524C77.77 114.224 77.5787 114.887 77.392 115.512C77.2053 116.137 77.0327 116.683 76.874 117.15H75.754C75.9313 116.655 76.1227 116.086 76.328 115.442C76.5333 114.798 76.734 114.121 76.93 113.412C77.1353 112.703 77.3313 111.998 77.518 111.298C77.7047 110.589 77.8727 109.926 78.022 109.31ZM74.872 110.864H82.712V111.844H74.872V110.864ZM74.074 113.51H83.356V114.504H74.074V113.51ZM76.552 119.25L77.322 118.606C77.77 118.877 78.2273 119.175 78.694 119.502C79.17 119.829 79.6087 120.151 80.01 120.468C80.4207 120.785 80.7567 121.075 81.018 121.336L80.234 122.12C79.982 121.849 79.6507 121.541 79.24 121.196C78.8293 120.86 78.3907 120.519 77.924 120.174C77.4573 119.829 77 119.521 76.552 119.25ZM94.15 112.138L95.256 112.474C94.668 114.182 93.912 115.657 92.988 116.898C92.0733 118.139 90.972 119.185 89.684 120.034C88.4053 120.883 86.9167 121.583 85.218 122.134C85.1807 122.041 85.12 121.933 85.036 121.812C84.9613 121.691 84.8773 121.565 84.784 121.434C84.7 121.303 84.6207 121.201 84.546 121.126C86.2073 120.641 87.6587 120.006 88.9 119.222C90.1413 118.429 91.196 117.453 92.064 116.296C92.932 115.129 93.6273 113.743 94.15 112.138ZM87.78 112.222C88.2933 113.715 88.984 115.059 89.852 116.254C90.7293 117.439 91.8027 118.443 93.072 119.264C94.3413 120.085 95.8207 120.697 97.51 121.098C97.426 121.173 97.3327 121.271 97.23 121.392C97.1367 121.523 97.0433 121.653 96.95 121.784C96.866 121.915 96.796 122.027 96.74 122.12C95.0133 121.672 93.506 121.009 92.218 120.132C90.9393 119.245 89.852 118.167 88.956 116.898C88.06 115.619 87.3227 114.163 86.744 112.53L87.78 112.222ZM84.7 111.62H97.356V112.642H84.7V111.62ZM90.44 109.24H91.518V112.236H90.44V109.24ZM106.456 109.408H107.506V122.12H106.456V109.408ZM104.048 109.94L105.056 110.15C104.925 110.794 104.767 111.433 104.58 112.068C104.403 112.693 104.197 113.277 103.964 113.818C103.74 114.359 103.493 114.845 103.222 115.274C103.157 115.218 103.068 115.157 102.956 115.092C102.853 115.027 102.741 114.961 102.62 114.896C102.508 114.831 102.41 114.779 102.326 114.742C102.597 114.359 102.839 113.911 103.054 113.398C103.278 112.875 103.474 112.32 103.642 111.732C103.81 111.144 103.945 110.547 104.048 109.94ZM104.174 112.11H110.726V113.132H103.922L104.174 112.11ZM102.438 116.226H111.342V117.262H102.438V116.226ZM101.752 109.296L102.746 109.59C102.447 110.383 102.102 111.167 101.71 111.942C101.327 112.707 100.907 113.431 100.45 114.112C100.002 114.784 99.5353 115.386 99.05 115.918C99.0127 115.834 98.9567 115.727 98.882 115.596C98.8167 115.465 98.742 115.335 98.658 115.204C98.5833 115.064 98.5133 114.957 98.448 114.882C98.8867 114.425 99.3067 113.897 99.708 113.3C100.119 112.703 100.497 112.063 100.842 111.382C101.197 110.691 101.5 109.996 101.752 109.296ZM100.338 112.894L101.332 111.9L101.346 111.914V122.092H100.338V112.894Z" fill="#606266"/>
    <rect x="728" y="96" width="40" height="40" rx="20" fill="#E5E5E5"/>
    <path d="M747 123.5L747 111.914L742.5 116.414L741.086 115L748 108.086L754.914 115L753.5 116.414L749 111.914L749 123.5H747Z" fill="#A8ABB2"/>
</svg>
